<svg version="1.2" xmlns="http://www.w3.org/2000/svg" viewBox="0 0 1217 743" width="1217" height="743">
	<style>
		.s0 { fill: #46644e } 
		.s1 { fill: #6e9f31 } 
	</style>
	<g id="OBJECTS">
		<path id="Path 0" fill-rule="evenodd" class="s0" d="m0 483h35v255h-35zm729.5 59.15c6.6-0.08 17.63 0.52 24.5 1.34 6.88 0.82 16.1 2.35 20.5 3.41 4.4 1.07 9.91 2.65 16.5 5.1v30l-5.75-2.55c-3.16-1.39-9.13-3.6-13.25-4.9-4.13-1.3-11.1-3.11-15.5-4.02-5.21-1.08-12.88-1.66-22-1.67-8.4-0.01-16.8 0.57-21 1.44-3.85 0.8-9.25 2.58-12 3.96-2.75 1.37-6.35 3.86-8 5.52-1.65 1.65-3.8 5.42-4.77 8.37-0.97 2.94-1.75 6.93-1.73 8.85 0.02 1.92 0.58 5.3 1.26 7.5 0.67 2.2 2.8 5.6 4.73 7.55 2.24 2.27 6.39 4.68 11.51 6.67 4.4 1.71 18.35 5.66 31 8.77 12.65 3.11 26.38 7.05 30.5 8.75 4.12 1.71 10.39 4.94 13.93 7.18 3.53 2.25 8.17 6.1 10.31 8.58 2.14 2.48 4.95 6.75 6.25 9.5 1.3 2.75 2.83 7.02 3.41 9.5 0.58 2.48 1.06 8.55 1.08 13.5 0.02 4.95-0.65 11.59-1.47 14.75-0.83 3.16-2.7 8.11-4.15 11-1.44 2.89-5.72 8.29-9.5 12-5.15 5.07-9.16 7.88-16.11 11.28-6.64 3.25-12.56 5.22-21 7-9.28 1.95-14.69 2.47-25.75 2.47-9.23 0-18.34-0.69-26.75-2.03-7.01-1.12-17.02-3.13-22.25-4.46-5.23-1.34-11.52-3.03-18.5-5.1l-0.25-16.2c-0.14-8.92-0.14-16.22 0-16.24 0.14-0.01 3.62 1.51 7.75 3.38 4.12 1.86 12.23 5.01 18 6.99 5.77 1.97 15 4.32 20.5 5.21 5.5 0.89 14.95 1.62 21 1.61 6.05 0 14.15-0.66 18-1.45 3.85-0.8 9.02-2.33 11.5-3.4 2.48-1.08 6.24-3.5 8.38-5.38 2.13-1.89 4.49-4.67 5.25-6.18 0.75-1.51 1.85-4.89 2.45-7.5 0.76-3.36 0.76-6.36 0.01-10.25-0.58-3.02-2.33-7.3-3.89-9.5-1.73-2.44-5.14-5.24-8.77-7.18-3.26-1.75-9.98-4.36-14.93-5.8-4.95-1.44-15.08-3.96-22.5-5.6-7.42-1.64-17.1-4.15-21.5-5.59-4.4-1.44-10.48-3.84-13.5-5.35-3.02-1.51-7.75-4.51-10.5-6.67-2.75-2.16-6.47-6.15-8.27-8.87-1.8-2.71-4.27-7.86-5.48-11.44-1.79-5.28-2.2-8.66-2.15-18 0.05-9.09 0.52-12.81 2.23-17.75 1.19-3.44 3.35-8.16 4.79-10.5 1.44-2.34 4.25-5.97 6.25-8.07 1.99-2.1 6.78-5.78 10.63-8.17 3.85-2.39 9.92-5.29 13.5-6.44 3.58-1.15 8.98-2.54 12-3.08 3.02-0.54 6.85-1.14 8.5-1.33 1.65-0.2 8.4-0.43 15-0.51zm204.5 0.34c10.88 0.28 16.37 0.91 22 2.51 4.12 1.17 10.65 3.65 14.5 5.51 3.85 1.86 9.7 5.57 13 8.24 3.3 2.67 8.39 7.76 11.31 11.31 2.92 3.54 7.29 10.49 9.7 15.44 2.42 4.95 5.3 12.6 6.41 17 1.11 4.4 2.48 11.83 3.05 16.5 0.57 4.67 1.03 13.56 1.03 31h-145l0.44 2.25c0.24 1.24 0.72 4.73 1.06 7.75 0.34 3.02 1.9 9.33 3.47 14 1.57 4.67 4.1 10.75 5.63 13.5 1.52 2.75 5.74 7.92 9.37 11.5 4.28 4.23 9.03 7.69 13.56 9.9 3.85 1.87 11.22 4.27 16.47 5.35 7.77 1.6 11.96 1.86 23 1.42 7.42-0.3 17.33-1.29 22-2.2 4.67-0.92 12.55-3 17.5-4.64 4.95-1.63 12.37-4.52 16.5-6.42 4.12-1.9 7.84-3.45 8.25-3.43 0.41 0.01 0.64 6.65 0.25 29.47l-7.5 2.88c-4.13 1.58-12.45 4.17-18.5 5.74-6.05 1.58-15.27 3.55-20.5 4.39-5.23 0.84-15.69 1.53-23.25 1.54-9.88 0-16.78-0.59-24.5-2.09-5.91-1.15-13.45-3.12-16.75-4.36-3.3-1.25-8.7-3.63-12-5.3-3.3-1.66-9.15-5.48-13-8.49-3.85-3.01-9.09-7.9-11.64-10.87-2.55-2.96-6.42-8.31-8.59-11.89-2.18-3.58-5.21-9.65-6.75-13.5-1.53-3.85-3.7-11.27-4.83-16.5-1.59-7.38-2.05-13.18-2.07-26-0.01-11.91 0.48-19.01 1.78-25.5 0.98-4.95 3.1-12.83 4.71-17.5 1.61-4.67 4.83-11.82 7.16-15.87 2.32-4.06 7.83-11.2 12.23-15.87 4.4-4.68 10.92-10.39 14.5-12.71 3.58-2.31 9.2-5.38 12.5-6.82 3.3-1.45 8.92-3.39 12.5-4.31 3.58-0.93 8.75-2.05 11.5-2.49 2.75-0.45 11.52-0.65 19.5-0.44zm-29.5 31.51c-2.75 1.2-7.48 3.91-10.5 6.03-3.02 2.12-7.47 6.47-9.88 9.66-2.41 3.2-5.4 8.06-6.64 10.81-1.24 2.75-2.73 6.8-3.32 9-0.59 2.2-1.43 6.58-1.87 9.74l-0.79 5.73 112 0.05c-1.33-11.25-2.38-16.77-3.2-19.52-0.82-2.75-3.14-8.11-5.15-11.91-2.29-4.33-5.7-8.76-9.15-11.88-3.02-2.73-7.64-6.03-10.25-7.34-2.61-1.3-7.56-3.04-11-3.86-3.44-0.81-9.85-1.44-14.25-1.4-4.4 0.04-10.92 0.67-14.5 1.39-3.58 0.73-8.75 2.3-11.5 3.5zm233-31.58c13.21 0.3 18.78 0.86 25 2.51 4.4 1.17 11.71 3.91 16.25 6.1 5.21 2.51 10.53 6.09 14.42 9.72 3.4 3.16 7.91 8.45 10.04 11.75 2.13 3.3 5.2 9.49 6.83 13.75 1.63 4.26 3.86 12.92 4.96 19.25 1.85 10.64 2 16 2 132.5h-32l0.06-28.5-3.19 4.5c-1.76 2.48-5.95 7.2-9.33 10.5-4.16 4.07-8.86 7.34-14.59 10.16-4.65 2.29-11.37 4.93-14.95 5.87-3.79 1-12.14 1.93-20 2.23-10.71 0.41-15.05 0.15-21-1.23-4.13-0.96-11.21-3.5-15.75-5.64-5.98-2.82-9.99-5.61-14.55-10.14-4.25-4.22-7.51-8.69-10.02-13.75-2.04-4.13-4.42-10.88-5.29-15-1.14-5.38-1.44-10.61-1.08-18.5 0.33-7.32 1.23-13.34 2.69-18 1.21-3.85 3.69-9.48 5.51-12.5 1.82-3.02 5.82-7.86 8.9-10.75 3.54-3.33 8.98-6.9 14.84-9.74 5.09-2.48 12.63-5.36 16.75-6.4 4.12-1.05 12.45-2.4 18.5-3.01 6.05-0.61 22.7-1.1 63-1.08l-0.66-7.26c-0.37-3.99-1.69-9.96-2.95-13.26-1.26-3.3-3.68-7.8-5.37-10-1.7-2.2-5.55-5.68-8.55-7.74-3.01-2.05-9.07-4.9-13.47-6.33-5.76-1.86-11.08-2.74-19-3.14-6.18-0.31-14.95-0.04-20 0.61-4.95 0.64-12.83 2.11-17.5 3.26-4.67 1.14-12.55 3.86-17.5 6.02-4.95 2.17-9.56 4.14-10.25 4.38-0.96 0.34-1.26-2.85-1.32-28.06l5.79-2.2c3.18-1.21 9.83-3.35 14.78-4.75 4.95-1.41 13.95-3.45 20-4.54 8.95-1.61 14.16-1.91 28-1.59zm-22.25 103.11c-3.44 0.81-8.78 2.71-11.88 4.22-3.1 1.51-7 4.33-8.68 6.25-1.67 1.92-3.97 5.52-5.12 8-1.7 3.69-2.07 6.48-2.07 15.5 0 10.13 0.24 11.5 3 17.4 1.65 3.52 4.58 7.76 6.5 9.42 1.92 1.67 6.2 4.31 9.5 5.86 3.88 1.83 8.82 3.14 14 3.72 4.4 0.49 10.92 0.52 14.5 0.07 3.58-0.45 9.2-1.77 12.5-2.92 3.3-1.16 8.21-3.56 10.91-5.33 2.7-1.77 6.98-5.49 9.5-8.26 2.53-2.77 6.26-8.17 8.29-12 2.04-3.83 4.65-10.56 5.81-14.96 1.16-4.4 2.42-13.06 2.8-19.25l0.69-11.26c-38.75 0.2-53.15 0.67-57 1.17-3.85 0.49-9.81 1.56-13.25 2.37zm-671.33-99.53h31.08v59.25c0 33.74 0.43 62.91 1.01 67.75 0.56 4.67 2.02 11.64 3.25 15.48 1.23 3.84 3.83 9.24 5.76 12 1.94 2.76 5.77 6.5 8.5 8.31 2.74 1.81 7.34 3.95 10.23 4.75 2.97 0.83 9.48 1.45 15 1.45 5.36-0.01 12-0.62 14.75-1.35 2.75-0.74 7.48-2.6 10.5-4.14 3.03-1.54 7.21-4.19 9.31-5.9 2.09-1.7 5.54-5.58 7.67-8.6 2.12-3.02 4.63-7.3 5.58-9.5 0.94-2.2 2.42-6.25 3.28-9 1.33-4.23 1.65-14.64 2.66-130l31.5-0.5v192h-32v-28l-3.85 4.75c-2.11 2.61-6.17 7-9.01 9.75-2.84 2.75-7.97 6.7-11.4 8.79-3.43 2.08-9.84 4.96-14.24 6.39-6.33 2.07-10.61 2.71-20.5 3.06-10.51 0.39-13.85 0.12-21-1.69-4.67-1.18-11.61-3.82-15.41-5.85-3.79-2.04-9.16-5.95-11.93-8.7-2.76-2.75-6.45-7.25-8.19-10-1.74-2.75-4.41-8.15-5.94-12-1.52-3.85-3.48-9.92-4.34-13.5-1.35-5.53-1.64-16.88-1.93-75.75zm-22.92-74l0.01 25.5-19.76 0.66c-13.53 0.45-21.4 1.15-25 2.25-3.1 0.94-6.58 2.93-8.5 4.87-1.79 1.8-3.87 5.06-4.62 7.25-0.83 2.4-1.52 9.8-2.13 33.47l51.5 0.5 0.5 24.5h-52v167h-32v-167h-30v-25h30l-0.01-10.75c0-5.91 0.67-14.8 1.51-19.75 1.03-6.09 2.77-11.59 5.4-17 2.69-5.56 5.35-9.33 8.74-12.35 2.67-2.4 6.66-5.27 8.86-6.39 2.2-1.12 5.8-2.69 8-3.49 2.2-0.8 7.15-2.05 11-2.77 4.24-0.8 15.19-1.36 48.5-1.5zm-227.25 70.12c5.09-0.07 12.74 0.57 17 1.41 4.26 0.84 11.35 3.28 15.75 5.41 5.09 2.47 9.98 5.82 13.43 9.22 2.99 2.94 6.86 7.59 8.6 10.34 1.75 2.75 4.33 7.92 5.74 11.5 1.41 3.58 3.36 9.87 4.34 14 1.58 6.71 1.8 14.67 2.39 144h-32v-63.5c0-54.14-0.23-64.64-1.59-71.25-0.87-4.26-2.65-10-3.95-12.75-1.29-2.75-4.07-6.96-6.16-9.36-2.21-2.54-6.3-5.57-9.8-7.25-3.5-1.69-8.92-3.27-13-3.79-4.11-0.52-10.4-0.52-15.25 0-4.54 0.5-10.61 1.77-13.5 2.84-2.89 1.07-7.95 3.91-11.25 6.3-3.3 2.4-7.65 6.59-9.67 9.31-2.02 2.72-4.83 7.43-6.23 10.45-1.41 3.02-3.24 8.65-4.06 12.5-1.24 5.78-1.51 17.43-1.54 126.5h-32v-192l31.5 0.5 0.54 14.5c0.3 7.98 0.63 14.05 0.74 13.5 0.11-0.55 2.47-3.7 5.26-7 2.78-3.3 7.4-7.92 10.26-10.26 2.86-2.34 8.13-5.77 11.7-7.61 3.58-1.85 9.43-4.09 13-4.98 3.58-0.88 7.4-1.79 8.5-2.01 1.1-0.23 6.16-0.46 11.25-0.52z"/>
		<path id="Path 1" fill-rule="evenodd" class="s1" d="m694.2 3.2c0.71 0.25 3.95 4.93 7.2 10.38 3.24 5.46 10.02 18.02 15.07 27.92 5.04 9.9 11.46 23.85 14.26 31 2.8 7.15 6.22 16.6 7.6 21 1.38 4.4 3.52 12.72 4.76 18.5 1.78 8.33 2.25 13.71 2.25 26 0 12.93-0.37 16.83-2.21 23.5-1.22 4.4-4.03 11.82-6.25 16.5-2.22 4.68-6.58 12.1-9.7 16.5-3.12 4.4-10.4 12.74-16.17 18.53-5.78 5.79-15.91 14.82-22.51 20.07-6.6 5.24-18.3 14.03-26 19.53-7.7 5.5-20.3 14.46-28 19.92-7.7 5.46-17.15 13.09-21.01 16.94-3.85 3.86-9.1 9.94-11.67 13.51-2.57 3.57-6.7 10.77-9.18 16-2.47 5.23-5.42 13.1-6.54 17.5-1.12 4.4-2.59 12.73-3.27 18.5-0.96 8.25-0.97 13.5-0.02 24.5 0.67 7.7 2.11 18.05 3.21 23 1.09 4.95 3.18 13.05 4.63 18 1.45 4.95 4.98 14.85 7.85 22 2.87 7.15 7.8 18.18 10.97 24.5 3.16 6.32 7.95 15.21 10.64 19.75 2.69 4.54 4.68 8.59 4.41 9-0.26 0.41-1.22 0.07-2.13-0.75-0.92-0.82-5.58-6.23-10.37-12-4.79-5.77-12.73-15.9-17.63-22.5-4.91-6.6-12.03-16.95-15.82-23-3.8-6.05-10.16-17.3-14.14-25-3.99-7.7-9.27-19.18-11.75-25.5-2.47-6.32-5.65-15.77-7.06-21-1.41-5.23-3.26-13.55-4.12-18.5-0.85-4.95-1.6-15.07-1.66-22.5-0.07-9.07 0.46-16.45 1.62-22.5 0.95-4.95 2.86-12.15 4.24-16 1.39-3.85 4.37-10.6 6.64-15 2.27-4.4 7.46-12.5 11.54-18 5.34-7.19 19.13-21.65 49.14-51.5 23.36-23.24 44.58-45.24 48.22-50 3.58-4.68 8.53-11.65 11.01-15.5 2.47-3.85 6.31-10.6 8.52-15 2.21-4.4 5.59-12.5 7.52-18 1.93-5.5 4.51-14.95 5.74-21 1.64-8.11 2.35-15.86 2.71-29.5 0.36-13.95 0.05-22.01-1.27-32.77-0.97-7.85-1.94-15-2.17-15.89-0.25-1 0.08-1.44 0.9-1.14zm33.26 248.96c0.7 0.57 0.29 3.34-1.28 8.59-1.27 4.26-4.36 12.92-6.84 19.25-2.49 6.32-7.02 16.23-10.05 22-3.04 5.77-7.8 13.87-10.58 18-2.77 4.12-7.11 10.2-9.63 13.5-2.52 3.3-12.45 13.87-22.08 23.5-14.02 14.02-18.49 19.18-22.5 25.97-2.75 4.66-6.51 12.53-8.36 17.5-1.84 4.97-4.27 13.08-5.39 18.03-1.55 6.83-2.07 12.79-2.15 24.75-0.06 10-0.46 15.63-1.1 15.42-0.55-0.17-3.11-5.01-5.69-10.75-2.57-5.73-6.5-15.82-8.71-22.42-2.22-6.6-4.97-16.27-6.1-21.5-1.14-5.23-2.32-15.35-2.64-22.5-0.47-10.62-0.21-14.74 1.38-22.5 1.24-6.03 3.6-12.97 6.46-19 2.48-5.23 6.52-12.2 8.98-15.5 2.46-3.3 6.74-8.48 9.5-11.5 2.77-3.02 9.71-9.2 15.43-13.73 5.71-4.53 15.56-11.53 21.89-15.57 6.33-4.04 17.8-10.75 25.5-14.91 7.7-4.16 18.26-9.79 23.46-12.52 5.57-2.92 9.88-4.61 10.5-4.11z"/>
	</g>
</svg>